<svg xmlns="http://www.w3.org/2000/svg" xmlns:xlink="http://www.w3.org/1999/xlink" width="100%" height="100%"
     viewBox="0 0 24 432">

    <symbol id="icon-pencil" viewBox="0 0 512 512">
        <path d="m455 150l-93-93c-5-5-14-5-20 0l-253 254l1 0l-1 0l-35 130l0 0c-2 4 0 10 3 14c5 4 11 5 16 2l0 0l128-34l0 0l0 0l254-254c5-5 5-14 0-19z m-359 265l21-76l56 56z"/>
    </symbol>

    <symbol id="icon-photo" viewBox="0 0 512 512">
        <path d="m477 92c0-12-10-23-23-23c-1 0-2 0-3 1l0-1l-393 0l0 0c-13 0-23 11-23 23l0 330l0 0c1 12 11 21 23 21l0 0l393 0l0-1c1 1 2 1 3 1c12 0 22-9 23-21l0 0l0-330z m-51 300l-55 0c0-1-1-2-1-2l0 0l-116-202l0 0c-3-5-8-9-15-9c-6 0-11 4-14 10l-77 134l-19-33l0 0c-2-3-4-5-8-5c-3 0-6 2-7 5l-28 48l0-218l340 0z m-26-194c0 28-23 51-51 51c-29 0-52-23-52-51c0-29 23-52 52-52c28 0 51 23 51 52z"/>
    </symbol>

    <symbol id="icon-camera" viewBox="0 0 512 512">
        <path d="m256 205c22 0 40 7 55 22c14 15 22 33 22 55c0 21-8 39-23 54c-15 15-33 22-54 22c-21 0-39-7-54-22c-15-15-23-33-23-54c0-22 8-40 23-55c15-15 33-22 54-22m205-77c14 0 26 5 36 15c10 10 15 22 15 36c0 0 0 231 0 231c0 13-5 25-15 35c-10 11-22 16-36 16c0 0-410 0-410 0c-13 0-25-5-36-16c-10-10-15-22-15-35c0 0 0-231 0-231c0-14 5-26 15-36c11-10 23-15 36-15c0 0 62 0 62 0c9 0 16-5 20-15c0 0 15-47 15-47c4-10 11-15 21-15c0 0 174 0 174 0c10 0 17 5 21 15c0 0 15 47 15 47c4 10 11 15 20 15c0 0 62 0 62 0m-205 282c36 0 66-13 91-38c25-25 37-55 37-90c0-36-12-66-37-91c-25-25-55-37-91-37c-35 0-66 12-91 37c-25 25-37 55-37 91c0 35 12 65 37 90c25 25 56 38 91 38m187-195c5 0 9-2 13-6c3-3 5-8 5-12c0-5-2-9-5-13c-4-3-8-5-13-5c-12 0-18 6-18 18c0 5 2 10 6 13c3 3 8 5 12 5"/>
    </symbol>

    <symbol id="icon-music" viewBox="0 0 512 512">
        <path d="m475 64l0 320c0 10-3 18-9 25-7 8-15 14-25 18-10 4-20 7-29 9-10 2-19 3-28 3-9 0-18-1-28-3-9-2-19-5-29-9-10-4-18-10-25-18-6-7-9-15-9-25 0-10 3-18 9-25 7-8 15-14 25-18 10-4 20-7 29-9 10-2 19-3 28-3 20 0 38 4 55 11l0-153-220 68 0 202c0 10-3 18-9 26-7 7-15 13-25 17-10 4-20 7-29 9-10 2-19 3-28 3-9 0-18-1-28-3-9-2-19-5-29-9-10-4-18-10-25-17-6-8-9-16-9-26 0-9 3-18 9-25 7-8 15-13 25-18 10-4 20-7 29-9 10-2 19-3 28-3 20 0 38 4 55 11l0-276c0-6 2-11 5-16 4-5 9-8 14-10l238-73c2-1 5-1 8-1 8 0 14 2 19 8 6 5 8 11 8 19z"/>
    </symbol>

    <symbol id="icon-video" viewBox="0 0 512 512">
        <path d="m491 80c-72-10-152-16-235-16-83 0-163 6-235 16-13 54-21 113-21 176 0 63 8 122 21 176 72 10 152 16 235 16 83 0 163-6 235-16 13-54 21-113 21-176 0-63-8-122-21-176z m-299 272l0-192 160 96z"/>
    </symbol>

    <symbol id="icon-category" viewBox="0 0 512 512">
        <path d="m501 271c0 5-3 11-8 18l-90 105c-7 9-18 17-32 23c-14 7-26 10-38 10l-290 0c-6 0-12-1-16-4c-5-2-8-6-8-11c0-6 3-12 9-18l89-105c8-10 19-17 32-24c14-6 27-9 39-9l290 0c6 0 11 1 16 3c5 3 7 7 7 12z m-91-92l0 43l-222 0c-17 0-34 4-53 13c-18 8-33 19-44 31l-89 106l-2 2c0-1 0-2 0-4c0-1 0-2 0-3l0-256c0-16 6-30 18-42c11-12 25-18 42-18l85 0c16 0 30 6 42 18c12 12 18 26 18 42l0 8l145 0c16 0 30 6 42 18c12 12 18 26 18 42z"/>
    </symbol>

    <symbol id="icon-tag" viewBox="0 0 512 512">
        <path d="m165 128c0-10-4-19-11-26-7-7-16-11-26-11-10 0-19 4-26 11-7 7-11 16-11 26 0 10 4 19 11 26 7 7 16 11 26 11 10 0 19-4 26-11 7-7 11-16 11-26z m304 165c0 10-3 18-10 25l-140 141c-8 7-17 10-26 10-11 0-19-3-26-10l-204-205c-8-7-14-16-19-29-5-12-7-23-7-33l0-119c0-10 3-18 10-26 8-7 16-10 26-10l119 0c10 0 21 2 33 7 13 5 22 11 30 19l204 204c7 7 10 16 10 26z"/>
    </symbol>

    <symbol id="icon-phone" viewBox="0 0 512 512">
        <path d="m352 320c-32 32-32 64-64 64-32 0-64-32-96-64-32-32-64-64-64-96 0-32 32-32 64-64 32-32-64-128-96-128-32 0-96 96-96 96 0 64 66 194 128 256 62 62 192 128 256 128 0 0 96-64 96-96 0-32-96-128-128-96z"/>
    </symbol>

    <symbol id="icon-pin" viewBox="0 0 512 512">
        <path d="m224 352l32 160 32-160c-10 1-21 2-32 2-10 0-22-1-32-2z m127-149c-16-9-31-30-31-43l0-32c0-11 6-19 12-26 7-6 12-14 12-22 0-27-31-48-88-48-57 0-87 21-87 48 0 8 4 16 12 22 5 7 11 15 11 26l0 32c0 13-14 34-31 43-19 9-35 27-35 44 0 37 51 74 130 74 80 0 130-37 130-74 0-17-15-34-35-44z"/>
    </symbol>

    <symbol id="icon-quote" viewBox="0 0 512 512">
        <path d="m400 320c-62 0-112-50-112-112 0-62 50-112 112-112 62 0 112 50 112 112l1 16c0 124-101 224-224 224l0-64c42 0 82-17 113-47 5-6 11-12 16-18-6 1-12 1-18 1z m-288 0c-62 0-112-50-112-112 0-62 50-112 112-112 62 0 112 50 112 112l1 16c0 124-101 224-224 224l0-64c42 0 82-17 113-47 5-6 11-12 16-18-6 1-12 1-18 1z"/>
    </symbol>

    <symbol id="icon-more" viewBox="0 0 512 512">
        <path d="m114 304c-28 0-50-21-50-48 0-26 22-48 50-48 27 0 50 22 50 48 0 27-23 48-50 48z m142 0c-27 0-50-21-50-48 0-26 23-48 50-48 28 0 50 22 50 48 0 27-22 48-50 48z m142 0c-27 0-50-21-50-48 0-26 23-48 50-48 28 0 50 22 50 48 0 27-22 48-50 48z"/>
    </symbol>

    <symbol id="icon-loader" viewBox="0 0 512 512">
        <path d="m383 35l-24 44c15 8 30 19 43 32 18 19 34 41 44 65 10 26 16 52 16 80 0 28-6 55-16 81-10 24-26 45-44 65-20 18-42 34-66 44-25 11-52 16-80 16-28 0-55-5-80-16-24-10-46-26-66-44-18-20-34-41-44-65-10-26-16-53-16-81 0-17 3-36 7-52 4-17 11-33 19-48 17-30 41-55 70-73 2-1 5-3 7-4l-24-44c-5 2-8 4-11 6-71 45-118 124-118 215 0 142 114 256 256 256 142 0 256-114 256-256 0-95-52-177-129-221z"/>
    </symbol>

    <symbol id="icon-comment" viewBox="0 0 512 512">
        <path d="m416 64l-320 0c-31 0-64 32-64 64l0 192c0 64 64 64 64 64l32 0 0 128 128-128c0 0 129 0 160 0 31 0 64-34 64-64l0-192c0-31-32-64-64-64z"/>
    </symbol>

    <symbol id="icon-comments" viewBox="0 0 512 512">
        <path d="m160 256c0-32 0-96 0-96 0 0-80 0-96 0-16 0-32 16-32 32 0 16 0 144 0 160 0 16 16 32 32 32 16 0 32 0 32 0l0 96 97-96c0 0 81 0 96 0 15 0 31-16 31-32 0-16 0-32 0-32 0 0-64 0-96 0-32 0-64-32-64-64z m288-192c-16 0-208 0-224 0-16 0-32 16-32 32 0 16 0 144 0 160 0 16 16 32 32 32 16 0 95 0 95 0l97 96 0-96c0 0 16 0 32 0 16 0 32-16 32-32 0-16 0-144 0-160 0-16-16-32-32-32z"/>
    </symbol>

    <symbol id="icon-search" viewBox="0 0 512 512">
        <path d="m498 498c-19 19-49 19-68 0l-85-85c-35 22-76 36-121 36c-124 0-224-101-224-225c0-124 100-224 224-224c124 0 225 100 225 224c0 45-14 86-36 121l85 85c19 19 19 49 0 68z m-274-434c-88 0-160 72-160 160c0 89 72 161 160 161c89 0 161-72 161-161c0-88-72-160-161-160z"/>
    </symbol>

    <symbol id="icon-menu" viewBox="0 0 512 512">
        <path d="m484 116c0 19-16 35-36 35l-384 0c-20 0-36-16-36-35c0-19 16-35 36-35l384 0c20 0 36 16 36 35z m0 140c0 19-16 35-36 35l-384 0c-20 0-36-16-36-35c0-19 16-35 36-35l384 0c20 0 36 16 36 35z m0 140c0 19-16 35-36 35l-384 0c-20 0-36-16-36-35c0-19 16-35 36-35l384 0c20 0 36 16 36 35z"/>
    </symbol>

    <symbol id="icon-link" viewBox="0 0 512 512">
        <path d="m220 318c-7 0-13-3-18-8-48-47-48-125 0-172l96-96c23-23 53-36 86-36 33 0 63 13 86 36 48 47 48 125 0 172l-44 44c-10 10-26 10-36 0-11-10-11-26 0-37l43-44c28-27 28-71 0-98-13-14-30-21-49-21-19 0-36 7-49 21l-96 96c-28 27-28 71 0 98 10 11 10 27 0 37-6 5-12 8-19 8z m-92 188c-33 0-63-13-86-36-48-47-48-125 0-172l44-44c10-10 26-10 36 0 11 10 11 26 0 37l-43 44c-28 27-28 71 0 99 13 13 30 20 49 20 19 0 36-7 50-21l96-96c27-27 27-71 0-98-11-11-11-27 0-37 10-10 26-10 36 0 48 47 48 125 0 172l-96 96c-23 23-53 36-86 36z"/>
    </symbol>

    <symbol id="icon-star" viewBox="0 0 512 512">
        <path d="m59 248l1 0l2 1c0 0 0 0 0 0l86 62l-33 101c0 0 0 0 0 0l-1 1l0 1c-18 55 6 72 53 38l1 0l88-63l86 62c0 0 0 0 0 0l2 1l1 1c47 34 71 16 53-39l0-1l-1-1c0 0 0 0 0 0l-33-101l86-62c0 0 0 0 0 0l3-1c47-34 38-62-20-62l-110 0l-34-102l0 0c-18-56-48-56-67 0l0 0l-33 102l-111 0c-57 0-66 27-19 62z"/>
    </symbol>

    <symbol id="icon-star-empty" viewBox="0 0 512 512">
        <path d="m433 186l-110 0l-33-102l-1 0c-9-28-21-42-33-42c-12 0-24 14-33 42l-1 0l-33 102l-110 0c-59 0-68 28-20 62l1 1l1 0c0 0 0 0 0 0l87 62l-34 101c0 0 0 0 0 0l0 1l0 1c-12 36-6 56 13 56c10 0 24-6 40-17l1-1l88-63l86 62c0 0 0 0 0 0l1 1l1 1c17 11 30 17 40 17c19 0 26-20 14-56l-1-1l0-1c0 0 0 0 0 0l-33-101l86-61c0 0 0 0 0-1l2-1c49-34 40-62-19-62z m-93 90l-26 19l10 30l26 78l-69-49l-25-18l-25 18l-69 49l26-78l10-30l-25-19l-68-48l115 0l10-29l26-80l26 80l10 29l115 0z"/>
    </symbol>

    <symbol id="icon-close" viewBox="0 0 512 512">
        <path d="m414 353l-97-97l97-97c17-17 17-44 0-61c-17-17-44-17-61 0l-97 97l-97-97c-17-17-44-17-61 0c-17 17-17 44 0 61l97 97l-97 97c-17 17-17 44 0 61c8 8 19 13 30 13c11 0 23-5 31-13l97-97l97 97c9 8 20 13 31 13c11 0 22-5 30-13c17-17 17-44 0-61z"/>
    </symbol>

    <symbol id="icon-ok" viewBox="0 0 512 512">
        <path d="m192 420c-11 0-22-5-30-13l-121-118c-17-17-17-43 0-59c16-16 43-16 59 0l92 90l220-215c16-17 43-17 59 0c17 16 17 42 0 58l-249 244c-8 8-19 13-30 13z"/>
    </symbol>

    <symbol id="icon-user" viewBox="0 0 512 512">
        <path d="m467 370c-13-21-57-33-101-52-43-18-53-24-53-24l-1-41c0 0 17-13 22-53 10 4 21-14 21-24 1-9-1-35-13-32 2-20 4-36 3-46-3-33-36-69-87-69-51 0-84 36-87 69-1 10 1 26 4 46-13-3-15 23-14 32 1 10 11 28 21 24 5 40 22 53 22 53l-1 41c0 0-10 7-54 24-43 19-87 31-100 52-12 18-8 106-8 106l435 0c0 0 3-88-9-106"/>
    </symbol>

    <symbol id="icon-shop" viewBox="0 0 512 512">
        <path d="m426 184c0-13-14-27-27-27l-43 0-8-78c-4-25-27-51-53-51l-78 0c-26 0-49 26-53 51l-8 78-43 0c-13 0-27 14-27 27l-25 260c0 14 13 26 25 26l340 0c12 0 25-12 25-26z m-244-27l9-78c2-12 13-25 26-25l78 0c14 0 24 13 26 25l9 78z"/>
    </symbol>

    <symbol id="icon-email" viewBox="0 0 512 512">
        <path d="m44 131c13 7 183 98 188 101 7 4 15 5 23 5 9 0 17-1 24-5 5-3 175-94 188-101 12-7 24-32 1-32l-425 0c-23 0-11 25 1 32z m428 55c-14 8-186 98-193 101-9 5-15 6-24 6-8 0-14-1-23-6-7-3-178-93-193-101-10-5-9 1-9 6 0 5 0 184 0 184 0 10 14 24 25 24l402 0c11 0 25-14 25-24 0 0 0-179 0-184 0-5 1-11-10-6z"/>
    </symbol>

    <symbol id="icon-facebook" viewBox="0 0 512 512">
        <path d="m296 121l68 0 0-81-68 0c-52 0-94 42-94 94l0 41-54 0 0 81 54 0 0 216 81 0 0-216 68 0 13-81-81 0 0-41c0-7 6-13 14-13z"/>
    </symbol>

    <symbol id="icon-flickr" viewBox="0 0 512 512">
        <path d="m374 217c-28 0-52 23-52 52 0 29 24 53 52 53 29 0 53-24 53-53 0-29-24-52-53-52z m0-40c51 0 92 41 92 92 0 51-41 92-92 92-51 0-92-41-92-92 0-51 41-92 92-92z m-328 92c0-51 41-92 92-92 51 0 92 41 92 92 0 51-41 92-92 92-51 0-92-41-92-92z"/>
    </symbol>

    <symbol id="icon-instagram" viewBox="0 0 512 512">
        <path d="m432 40l-352 0c-21 0-40 19-40 40l0 352c0 21 19 40 40 40l352 0c21 0 40-19 40-40l0-352c0-21-19-40-40-40z m-95 68c0-8 6-14 14-14l54 0c7 0 13 6 13 14l0 54c0 7-6 13-13 13l-54 0c-8 0-14-6-14-13z m-81 67c45 0 81 36 81 81 0 45-36 81-81 81-45 0-81-36-81-81 0-45 36-81 81-81z m162 229c0 8-6 14-14 14l-297 0c-7 0-13-6-13-14l0-175 30 0c-2 8-3 18-3 27 0 74 61 135 135 135 74 0 135-61 135-135 0-9-1-19-3-27l30 0z"/>
    </symbol>

    <symbol id="icon-linkedin" viewBox="0 0 512 512">
        <path d="m195 195l85 0 0 43 1 0c11-21 40-43 82-43 90 0 106 55 106 128l0 146-88 0 0-130c0-31 0-71-45-71-46 0-53 34-53 69l0 132-88 0z m-152 0l91 0 0 274-91 0z m91-76c0 26-20 46-45 46-26 0-46-20-46-46 0-26 20-46 46-46 25 0 45 20 45 46z"/>
    </symbol>

    <symbol id="icon-pinterest" viewBox="0 0 512 512">
        <path d="m256 40c-119 0-216 97-216 216 0 91 57 169 137 201-2-17-3-43 1-62 4-16 25-107 25-107 0 0-6-14-6-32 0-30 17-53 40-53 17 0 27 14 27 31 0 18-12 46-19 72-5 21 11 39 32 39 38 0 69-41 69-100 0-51-37-87-91-87-61 0-97 46-97 94 0 19 7 38 16 49 1 2 2 4 1 7-2 6-5 21-6 24-1 4-2 5-7 3-27-13-44-53-44-84 0-68 49-130 143-130 75 0 133 52 133 124 0 74-48 135-112 135-22 0-43-12-49-26 0 0-11 42-14 52-5 18-18 42-27 56 20 6 42 10 64 10 120 0 216-96 216-216 0-119-96-216-216-216z"/>
    </symbol>

    <symbol id="icon-rss" viewBox="0 0 512 512">
        <path d="m116 345c-28 0-52 23-52 51 0 28 24 51 52 51 28 0 51-23 51-51 0-28-23-51-51-51z m-15-143c-2 0-2 0-2 0l-20 0c-11 1-17 9-19 19l0 37 2 0c1 9 8 16 17 18l20 0c0 0 0 0 2 0 74 0 135 61 137 135l0 21c1 10 9 17 19 18l37 0 0-1c9-1 16-8 17-17l0-21c-1-115-95-209-210-209z m351 209c-2-192-159-349-351-349-2 0-2 0-2 0l-20 0 0 1c-11 1-17 9-19 19l0 36 2 0c1 9 8 17 17 18l20 0c0 0 0 0 2 0 152 0 276 123 276 275l0 21c1 10 10 17 19 18l37 0 0-1c9-1 16-8 17-17l2 0 0-21z"/>
    </symbol>

    <symbol id="icon-skype" viewBox="0 0 512 512">
        <path d="m216 38c-1-1-1-1-2-2-1 1-1 1-2 1z m-179 177c0 0 0 0 0 1 1 1 1 2 1 3z m437 82c1 0 1 0 1-1-1-1-1-2-1-3z m-181 176c1 0 2 0 3 1 0 0 1 0 1-1z m182-177c0 1 0 1-1 1l0-4c0 1 0 2 1 3 3-14 4-27 4-41 0-30-6-59-17-87-12-26-28-50-48-70-21-21-45-37-71-48-27-12-57-18-87-18-14 0-29 1-42 4 1 1 1 1 2 2l-4-1c1 0 1 0 2-1-19-10-40-15-62-15-35 0-68 13-93 38-25 25-39 58-39 94 0 22 6 44 17 63 0-1 0-1 1-2l0 5c0-1 0-2-1-3-2 13-3 26-3 39 0 30 5 59 17 87 11 26 27 50 47 71 22 20 45 36 71 48 28 11 58 17 87 17 14 0 27-2 40-4-1-1-2-1-3-1l4 0c0 1 0 1-1 1 19 11 41 17 64 17 35 0 68-14 93-39 25-25 39-58 39-93 0-22-6-44-17-63z m-218 95c-79 0-114-38-114-68 0-14 11-26 25-26 35 0 26 49 89 49 32 0 51-17 51-35 0-11-6-23-27-28l-71-18c-56-14-66-45-66-73 0-60 56-83 108-83 49 0 106 27 106 63 0 16-13 24-28 24-29 0-23-40-81-40-30 0-45 13-45 33 0 18 23 24 42 28l52 12c58 13 71 46 71 78 0 49-36 84-112 84z"/>
    </symbol>

    <symbol id="icon-tumblr" viewBox="0 0 512 512">
        <path d="m283 229l0 99c0 25 0 39 3 46 2 8 9 14 16 19 10 6 21 9 32 9 22 0 35-3 57-18l0 65c-19 9-35 15-50 18-14 3-31 5-48 5-20 0-31-3-46-8-15-5-29-11-39-21-11-9-19-19-23-29-4-10-6-26-6-46l0-151-58 0 0-61c17-5 36-14 48-24 12-10 22-23 30-37 6-15 11-33 14-55l70 0 0 108 108 0 0 81z"/>
    </symbol>

    <symbol id="icon-twitter" viewBox="0 0 512 512">
        <path d="m473 135c-16 8-33 12-51 14 18-11 32-28 39-49-17 10-37 17-57 21-16-16-39-27-64-27-49 0-89 39-89 88 0 7 0 14 2 21-74-4-139-39-183-93-8 13-12 28-12 44 0 31 15 59 39 74-14 0-28-4-40-11 0 1 0 1 0 2 0 42 31 78 71 87-7 2-15 2-23 2-6 0-11 0-17-1 11 35 44 61 83 62-30 24-69 38-110 38-7 0-15 0-22-1 40 25 87 40 137 40 163 0 253-136 253-253 0-4 0-8 0-11 17-13 32-29 44-47z"/>
    </symbol>

    <symbol id="icon-youtube" viewBox="0 0 512 512">
        <path d="m164 40l-30 58-29-58-37 0 53 92 0-1 0 71 27 0 0-70 53-92z m78 54c8 0 14 6 14 14l0 54c0 7-6 13-14 13-7 0-13-6-13-13l0-54c0-8 6-14 13-14z m0-27c-21 0-40 19-40 41l0 54c0 21 19 40 40 40 22 0 41-19 41-40l0-54c0-22-19-41-41-41z m122 0l0 106c-12 10-27 16-27-19l0-87-27 0 0 93c1 22 5 62 54 29l0 13 27 0 0-135z m40 270c-7 0-13 6-13 14l0 13 27 0 0-13c0-8-6-14-14-14z m-121 13l0 71c9 10 27 11 27-3 0-14 0-50 0-63 0-14-13-18-27-5z m186-64c0-16-6-29-16-38-10-11-23-16-38-16-30-2-97-3-156-3-60 0-132 1-161 3-16 0-28 5-39 16-10 9-15 22-16 38-2 31-3 43-3 59 0 16 1 39 3 70 1 17 6 29 16 38 11 11 23 16 39 16 29 2 101 3 161 3 59 0 126-1 156-3 15 0 28-5 38-16 10-9 16-21 16-38 2-26 3-49 3-70 0-22-1-33-3-59z m-348 159l-27 0 0-135-27 0 0-27 81 0 0 27-27 0z m108 0l-27 0 0-13c-51 29-53 1-54-21l0-74 27 0 0 74c0 17 15 15 27 5l0-79 27 0z m108-27c0 28-29 36-54 14l0 13-27 0 0-162 27 0 0 44c27-27 54-17 54 10 0 27 0 51 0 81z m108-54l0 14-54 0 0 27c0 7 6 13 14 13 7 0 13-6 13-13l0-14 27 0 0 14c0 21-19 40-40 40-22 0-41-19-41-40l0-54c0-22 19-41 41-41 21 0 40 19 40 41z"/>
    </symbol>

    <symbol id="icon-download" viewBox="0 0 512 512">
        <path d="m416 160l-96 0 0-160-128 0 0 160-96 0 160 192z m-320 352l320 0 0-96-320 0z"/>
    </symbol>

    <symbol id="icon-heart" viewBox="0 0 512 512">
        <path d="m346 69c-36 0-69 17-90 44c-21-27-54-44-90-44c-63 0-114 51-114 114c-1 68 32 108 58 140l6 7c31 39 128 108 132 111c2 1 5 2 8 2c3 0 6-1 8-2c4-3 101-72 132-111l6-7c26-32 59-72 59-140c-1-63-52-114-115-114z"/>
    </symbol>

    <symbol id="icon-logo" viewBox="0 0 512 512">
        <path d="m332 21l0 277 59 0 0 90-59 0 0 92c94-33 160-120 160-223l0 0c0-1 0-1 0-1l0 1 0 0 0-236z m-155 14c-92 33-157 120-157 222l0 0c0 15 2 29 4 43l0-1z m52 64l-6 13-108 186 114 0z m-169 289c38 56 99 95 168 103l1 0 0-103z"/>
    </symbol>

    <symbol id="icon-address" viewBox="0 0 512 512">
        <path d="m236 502c-145-211-172-233-172-310 0-106 86-192 192-192 106 0 192 86 192 192 0 77-27 99-172 310-10 13-30 13-40 0z m20-230c44 0 80-36 80-80 0-44-36-80-80-80-44 0-80 36-80 80 0 44 36 80 80 80z"/>
    </symbol>

    <symbol id="icon-fax" viewBox="0 0 512 512">
        <path d="m82 110c13 0 24 4 33 13 9 9 13 20 13 32l0 311c0 13-4 24-13 33-9 9-20 13-33 13l-36 0c-13 0-24-4-33-13-9-9-13-20-13-33l0-311c0-12 4-23 13-32 9-9 20-13 33-13z m393 46c11 7 20 16 27 27 7 11 10 23 10 36l0 220c0 20-7 37-21 52-15 14-32 21-52 21l-247 0c-13 0-23-4-32-13-9-9-14-20-14-33l0-439c0-7 3-14 8-19 6-5 12-8 20-8l192 0c7 0 16 2 25 6 9 4 16 8 22 13l43 44c5 5 10 12 14 22 4 9 5 17 5 25z m-210 283l0-37c0-2-1-5-2-6-2-2-4-3-7-3l-37 0c-2 0-4 1-6 3-2 1-3 4-3 6l0 37c0 3 1 5 3 6 2 2 4 3 6 3l37 0c3 0 5-1 7-3 1-1 2-3 2-6z m0-73l0-37c0-3-1-5-2-6-2-2-4-3-7-3l-37 0c-2 0-4 1-6 3-2 1-3 3-3 6l0 37c0 2 1 5 3 6 2 2 4 3 6 3l37 0c3 0 5-1 7-3 1-1 2-4 2-6z m0-73l0-37c0-3-1-5-2-7-2-1-4-2-7-2l-37 0c-2 0-4 1-6 2-2 2-3 4-3 7l0 37c0 2 1 4 3 6 2 2 4 3 6 3l37 0c3 0 5-1 7-3 1-2 2-4 2-6z m73 146l0-37c0-2-1-5-2-6-2-2-4-3-7-3l-36 0c-3 0-5 1-7 3-2 1-3 4-3 6l0 37c0 3 1 5 3 6 2 2 4 3 7 3l36 0c3 0 5-1 7-3 1-1 2-3 2-6z m0-73l0-37c0-3-1-5-2-6-2-2-4-3-7-3l-36 0c-3 0-5 1-7 3-2 1-3 3-3 6l0 37c0 2 1 5 3 6 2 2 4 3 7 3l36 0c3 0 5-1 7-3 1-1 2-4 2-6z m0-73l0-37c0-3-1-5-2-7-2-1-4-2-7-2l-36 0c-3 0-5 1-7 2-2 2-3 4-3 7l0 37c0 2 1 4 3 6 2 2 4 3 7 3l36 0c3 0 5-1 7-3 1-2 2-4 2-6z m73 146l0-37c0-2 0-5-2-6-2-2-4-3-7-3l-36 0c-3 0-5 1-7 3-2 1-2 4-2 6l0 37c0 3 0 5 2 6 2 2 4 3 7 3l36 0c3 0 5-1 7-3 2-1 2-3 2-6z m0-73l0-37c0-3 0-5-2-6-2-2-4-3-7-3l-36 0c-3 0-5 1-7 3-2 1-2 3-2 6l0 37c0 2 0 5 2 6 2 2 4 3 7 3l36 0c3 0 5-1 7-3 2-1 2-4 2-6z m0-73l0-37c0-3 0-5-2-7-2-1-4-2-7-2l-36 0c-3 0-5 1-7 2-2 2-2 4-2 7l0 37c0 2 0 4 2 6 2 2 4 3 7 3l36 0c3 0 5-1 7-3 2-2 2-4 2-6z m28-110l0-73-46 0c-7 0-14-3-19-8-6-6-8-12-8-20l0-45-183 0 0 146z"/>
    </symbol>

    <symbol id="icon-contact-email" viewBox="0 0 512 512">
        <path d="m512 464c0 27-21 48-48 48l-416 0c-27 0-48-21-48-48l0-263c0-16 7-29 18-38l0 0c25-20 46-35 165-122 16-12 50-41 73-41 23 0 57 29 73 41 119 87 140 102 165 122 11 9 18 22 18 38z m-66-197c-2-3-7-4-11-2-23 17-55 41-106 78-16 12-50 41-73 41-23 0-57-29-73-41-51-37-83-61-106-78-4-2-9-1-11 2l-9 14c-1 1-2 2-2 4 0 3 1 5 3 7l0 0c23 16 56 40 106 76 20 15 56 48 92 48 36 0 72-33 92-48 50-36 83-60 106-76 2-2 3-4 3-7 0-2-1-3-2-4l0 0z"/>
    </symbol>

    <view id="icon-link-light-view" viewBox="0 0 24 24"/>
    <view id="icon-link-dark-view" viewBox="0 24 24 24"/>
    <view id="icon-sticky-view" viewBox="0 48 24 24"/>
    <view id="icon-video-view" viewBox="0 72 24 24"/>
    <view id="icon-chat-view" viewBox="0 96 24 24"/>
    <view id="icon-audio-view" viewBox="0 120 24 24"/>
    <view id="icon-image-view" viewBox="0 144 24 24"/>
    <view id="icon-quote-view" viewBox="0 168 24 24"/>
    <view id="icon-aside-view" viewBox="0 192 24 24"/>
    <view id="icon-gallery-view" viewBox="0 216 24 24"/>
    <view id="icon-comment-view" viewBox="0 240 24 24"/>
    <view id="icon-loader-view" viewBox="0 264 24 24"/>
    <view id="icon-star-full-view" viewBox="0 288 24 24"/>
    <view id="icon-star-empty-view" viewBox="0 312 24 24"/>
    <view id="icon-ok-view" viewBox="0 336 24 24"/>
    <view id="icon-loader-light-view" viewBox="0 360 24 24"/>
    <view id="icon-star-full-color-view" viewBox="0 384 24 24"/>
    <view id="icon-search-dark-view" viewBox="0 408 24 24"/>

    <use style="fill:#fff;" xlink:href="#icon-link" width="24" height="24" x="0" y="0"></use>
    <use xlink:href="#icon-link" width="24" height="24" x="0" y="24"></use>
    <use style="fill:#fff;" xlink:href="#icon-pin" width="24" height="24" x="0" y="48"></use>
    <use style="fill:#fff;" xlink:href="#icon-video" width="24" height="24" x="0" y="72"></use>
    <use style="fill:#fff;" xlink:href="#icon-comments" width="24" height="24" x="0" y="96"></use>
    <use style="fill:#fff;" xlink:href="#icon-music" width="24" height="24" x="0" y="120"></use>
    <use style="fill:#fff;" xlink:href="#icon-camera" width="24" height="24" x="0" y="144"></use>
    <use style="fill:#fff;" xlink:href="#icon-quote" width="24" height="24" x="0" y="168"></use>
    <use style="fill:#fff;" xlink:href="#icon-pencil" width="24" height="24" x="0" y="192"></use>
    <use style="fill:#fff;" xlink:href="#icon-photo" width="24" height="24" x="0" y="216"></use>
    <use style="fill:#fff;" xlink:href="#icon-comment" width="24" height="24" x="0" y="240"></use>
    <use style="fill:#aaa;" xlink:href="#icon-loader" width="24" height="24" x="0" y="264"></use>
    <use style="fill:#999;" xlink:href="#icon-star" width="24" height="24" x="0" y="288"></use>
    <use style="fill:#999;" xlink:href="#icon-star-empty" width="24" height="24" x="0" y="312"></use>
    <use style="fill:#fff;" xlink:href="#icon-ok" width="24" height="24" x="0" y="336"></use>
    <use style="fill:#fff;" xlink:href="#icon-loader" width="24" height="24" x="0" y="360"></use>
    <use style="fill:#ffcc4d;" xlink:href="#icon-star" width="24" height="24" x="0" y="384"></use>
    <use xlink:href="#icon-search" width="24" height="24" x="0" y="408"></use>

</svg>
